<svg id="visual" viewBox="0 0 900 600" width="900" height="600" xmlns="http://www.w3.org/2000/svg" xmlns:xlink="http://www.w3.org/1999/xlink" version="1.1"><rect x="0" y="0" width="900" height="600" fill="#001220"></rect><path d="M0 397L21.5 399.5C43 402 86 407 128.8 409.7C171.7 412.3 214.3 412.7 257.2 406C300 399.3 343 385.7 385.8 389C428.7 392.3 471.3 412.7 514.2 415C557 417.3 600 401.7 642.8 391.3C685.7 381 728.3 376 771.2 376.3C814 376.7 857 382.3 878.5 385.2L900 388L900 601L878.5 601C857 601 814 601 771.2 601C728.3 601 685.7 601 642.8 601C600 601 557 601 514.2 601C471.3 601 428.7 601 385.8 601C343 601 300 601 257.2 601C214.3 601 171.7 601 128.8 601C86 601 43 601 21.5 601L0 601Z" fill="#699efa"></path><path d="M0 410L21.5 419.3C43 428.7 86 447.3 128.8 449.5C171.7 451.7 214.3 437.3 257.2 431.7C300 426 343 429 385.8 427.8C428.7 426.7 471.3 421.3 514.2 420.8C557 420.3 600 424.7 642.8 434C685.7 443.3 728.3 457.7 771.2 461C814 464.3 857 456.7 878.5 452.8L900 449L900 601L878.5 601C857 601 814 601 771.2 601C728.3 601 685.7 601 642.8 601C600 601 557 601 514.2 601C471.3 601 428.7 601 385.8 601C343 601 300 601 257.2 601C214.3 601 171.7 601 128.8 601C86 601 43 601 21.5 601L0 601Z" fill="#5387ef"></path><path d="M0 472L21.5 476.2C43 480.3 86 488.7 128.8 491C171.7 493.3 214.3 489.7 257.2 487C300 484.3 343 482.7 385.8 475.3C428.7 468 471.3 455 514.2 459.2C557 463.3 600 484.7 642.8 491.8C685.7 499 728.3 492 771.2 488.7C814 485.3 857 485.7 878.5 485.8L900 486L900 601L878.5 601C857 601 814 601 771.2 601C728.3 601 685.7 601 642.8 601C600 601 557 601 514.2 601C471.3 601 428.7 601 385.8 601C343 601 300 601 257.2 601C214.3 601 171.7 601 128.8 601C86 601 43 601 21.5 601L0 601Z" fill="#4070e3"></path><path d="M0 496L21.5 497.3C43 498.7 86 501.3 128.8 508C171.7 514.7 214.3 525.3 257.2 523.3C300 521.3 343 506.7 385.8 505C428.7 503.3 471.3 514.7 514.2 517C557 519.3 600 512.7 642.8 510.2C685.7 507.7 728.3 509.3 771.2 512.3C814 515.3 857 519.7 878.5 521.8L900 524L900 601L878.5 601C857 601 814 601 771.2 601C728.3 601 685.7 601 642.8 601C600 601 557 601 514.2 601C471.3 601 428.7 601 385.8 601C343 601 300 601 257.2 601C214.3 601 171.7 601 128.8 601C86 601 43 601 21.5 601L0 601Z" fill="#3059d6"></path><path d="M0 567L21.5 563C43 559 86 551 128.8 549.5C171.7 548 214.3 553 257.2 553.2C300 553.3 343 548.7 385.8 550.3C428.7 552 471.3 560 514.2 563.3C557 566.7 600 565.3 642.8 565.2C685.7 565 728.3 566 771.2 565C814 564 857 561 878.5 559.5L900 558L900 601L878.5 601C857 601 814 601 771.2 601C728.3 601 685.7 601 642.8 601C600 601 557 601 514.2 601C471.3 601 428.7 601 385.8 601C343 601 300 601 257.2 601C214.3 601 171.7 601 128.8 601C86 601 43 601 21.5 601L0 601Z" fill="#2441c7"></path></svg>